# xmcd
#
# Track frame offsets:
#	150
#	20810
#	36855
#	51680
#	72120
#	93680
#	113962
#	130287
#	154207
#	173692
#	195045
#	213045
#	231915
#	248975
#	266887
#	287582
#	299012
#	313282
#	325770
#
# Disc length: 4554
#
# Revision: 4
# Processed by: cddbd v1.5.1PL0 Copyright (c) Steve Scherf et al.
# Submitted via: audiograbber 1.80
# Normalized: r3:DSETVAR1
#
DISCID=2811c813
DTITLE=Various Artist - The Best of ALL WOMAN [CD1]
DYEAR=1900
DGENRE=
TTITLE0=Dina Carroll - So Close
TTITLE1=Beverley Craven - Promise Me
TTITLE2=Diana Ross - Remember Me
TTITLE3=Oleta Adams - Get Here
TTITLE4=Lisa Stansfield - All Woman
TTITLE5=Eternal - Oh Baby I ...
TTITLE6=Michelle Gayle - Sweetness
TTITLE7=Brenda Russell - Piano In The Dark
TTITLE8=Joan Armatrading - Love And Affection
TTITLE9=Sinead O'Connor - My Special Child
TTITLE10=Desree - You Gotta Be
TTITLE11=Nancy Griffith - From A Distance
TTITLE12=Phillis Nelson - Move Closer
TTITLE13=Sam Brown - Stop
TTITLE14=Dee C Lee - See The Day
TTITLE15=Erma Franklin - (Take A Little) Piece Of My Heart
TTITLE16=Dusty Springfield - I Close My Eyes And Count to Ten
TTITLE17=Dinah Washington - Mad About The Boy
TTITLE18=Aretha Franklin - I Say A Little Prayer
EXTD=
EXTT0=
EXTT1=
EXTT2=
EXTT3=
EXTT4=
EXTT5=
EXTT6=
EXTT7=
EXTT8=
EXTT9=
EXTT10=
EXTT11=
EXTT12=
EXTT13=
EXTT14=
EXTT15=
EXTT16=
EXTT17=
EXTT18=
PLAYORDER=
